<svg width="23" height="24" viewBox="0 0 23 24" fill="none" xmlns="http://www.w3.org/2000/svg">
<path d="M8.62501 12L10.5417 14L14.375 10L8.62501 12ZM7.50855 4.697C8.19597 4.63975 8.84857 4.3577 9.37347 3.891C9.96659 3.36327 10.7205 3.07339 11.5 3.07339C12.2795 3.07339 13.0334 3.36327 13.6265 3.891C14.1514 4.3577 14.804 4.63975 15.4915 4.697C16.2684 4.7615 16.9979 5.11283 17.5491 5.68793C18.1002 6.26303 18.4369 7.02425 18.4987 7.835C18.5536 8.55231 18.8239 9.23328 19.2711 9.781C19.7769 10.3999 20.0547 11.1866 20.0547 12C20.0547 12.8134 19.7769 13.6001 19.2711 14.219C18.8239 14.7667 18.5536 15.4477 18.4987 16.165C18.4369 16.9758 18.1002 17.737 17.5491 18.3121C16.9979 18.8872 16.2684 19.2385 15.4915 19.303C14.804 19.3603 14.1514 19.6423 13.6265 20.109C13.0334 20.6367 12.2795 20.9266 11.5 20.9266C10.7205 20.9266 9.96659 20.6367 9.37347 20.109C8.84857 19.6423 8.19597 19.3603 7.50855 19.303C6.73158 19.2385 6.00207 18.8872 5.45094 18.3121C4.8998 17.737 4.56311 16.9758 4.5013 16.165C4.44644 15.4477 4.17614 14.7667 3.72888 14.219C3.22314 13.6001 2.94534 12.8134 2.94534 12C2.94534 11.1866 3.22314 10.3999 3.72888 9.781C4.17614 9.23328 4.44644 8.55231 4.5013 7.835C4.56311 7.02425 4.8998 6.26303 5.45094 5.68793C6.00207 5.11283 6.73158 4.7615 7.50855 4.697V4.697Z" stroke="#868B93" stroke-width="2" stroke-linecap="round" stroke-linejoin="round"/>
</svg>
