<svg width="20" height="20" viewBox="0 0 20 20" fill="none" xmlns="http://www.w3.org/2000/svg">
<path d="M10 2.5V3.33333V2.5ZM10 16.6667V17.5V16.6667ZM17.5 10H16.6667H17.5ZM3.33333 10H2.5H3.33333ZM15.3033 15.3033L14.7142 14.7142L15.3033 15.3033ZM5.28583 5.28583L4.69667 4.69667L5.28583 5.28583ZM15.3033 4.69667L14.7142 5.28583L15.3033 4.69667ZM5.28583 14.7142L4.69667 15.3033L5.28583 14.7142ZM13.3333 10C13.3333 10.8841 12.9821 11.7319 12.357 12.357C11.7319 12.9821 10.8841 13.3333 10 13.3333C9.11594 13.3333 8.2681 12.9821 7.64298 12.357C7.01786 11.7319 6.66667 10.8841 6.66667 10C6.66667 9.11594 7.01786 8.2681 7.64298 7.64298C8.2681 7.01786 9.11594 6.66667 10 6.66667C10.8841 6.66667 11.7319 7.01786 12.357 7.64298C12.9821 8.2681 13.3333 9.11594 13.3333 10V10Z" stroke="#868B93" stroke-width="2" stroke-linecap="round" stroke-linejoin="round"/>
</svg>
