<svg width="13" height="13" viewBox="0 0 13 13" fill="none" xmlns="http://www.w3.org/2000/svg">
<path d="M11.487 0.2596C11.57 0.1765 11.666 0.112399 11.774 0.0674992C11.883 0.0224992 11.996 0 12.114 0C12.231 0 12.344 0.0224992 12.453 0.0674992C12.561 0.112399 12.657 0.1765 12.74 0.2596C12.782 0.3008 12.818 0.3455 12.851 0.3939C12.883 0.4423 12.91 0.493399 12.933 0.547199C12.955 0.600899 12.972 0.6564 12.983 0.7134C12.994 0.7705 13 0.8282 13 0.8864C13 0.9446 12.994 1.0022 12.983 1.0593C12.972 1.1164 12.955 1.1718 12.933 1.2256C12.91 1.2793 12.883 1.3304 12.851 1.3788C12.818 1.4272 12.782 1.472 12.74 1.5131L7.75403 6.5L12.74 11.4869C12.782 11.528 12.818 11.5728 12.851 11.6212C12.883 11.6695 12.91 11.7206 12.933 11.7745C12.955 11.8282 12.972 11.8836 12.983 11.9407C12.994 11.9978 13 12.0554 13 12.1136C13 12.1719 12.994 12.2295 12.983 12.2865C12.972 12.3437 12.955 12.3991 12.933 12.4528C12.91 12.5066 12.883 12.5577 12.851 12.6061C12.818 12.6545 12.782 12.6992 12.74 12.7404C12.699 12.7816 12.654 12.8183 12.606 12.8506C12.558 12.8829 12.507 12.9102 12.453 12.9325C12.399 12.9548 12.344 12.9716 12.287 12.983C12.229 12.9943 12.172 13 12.114 13C12.055 13 11.998 12.9943 11.941 12.983C11.884 12.9716 11.828 12.9548 11.774 12.9325C11.721 12.9102 11.67 12.8829 11.621 12.8506C11.573 12.8183 11.528 12.7816 11.487 12.7404L6.5 7.7536L1.513 12.7404C1.472 12.7816 1.42703 12.8183 1.37903 12.8506C1.33003 12.8829 1.27901 12.9102 1.22601 12.9325C1.17201 12.9548 1.11602 12.9716 1.05902 12.983C1.00202 12.9943 0.944986 13 0.885986 13C0.827986 13 0.771013 12.9943 0.713013 12.983C0.656013 12.9716 0.600997 12.9548 0.546997 12.9325C0.492997 12.9102 0.441982 12.8829 0.393982 12.8506C0.345982 12.8183 0.30101 12.7816 0.26001 12.7404C0.17601 12.6572 0.112017 12.5614 0.0670166 12.4528C0.0220166 12.3442 0 12.2312 0 12.1136C0 11.9961 0.0220166 11.883 0.0670166 11.7745C0.112017 11.6659 0.17601 11.57 0.26001 11.4869L5.24597 6.5L0.26001 1.5131C0.21801 1.472 0.181987 1.4272 0.148987 1.3788C0.116987 1.3304 0.0900166 1.2793 0.0670166 1.2256C0.0450166 1.1718 0.0280288 1.1164 0.0170288 1.0593C0.00602881 1.0022 0 0.9446 0 0.8864C0 0.8282 0.00602881 0.7705 0.0170288 0.7134C0.0280288 0.6564 0.0450166 0.600899 0.0670166 0.547199C0.0900166 0.493399 0.116987 0.4423 0.148987 0.3939C0.181987 0.3455 0.21801 0.3008 0.26001 0.2596C0.30101 0.2185 0.345982 0.181701 0.393982 0.149401C0.441982 0.117001 0.492997 0.0896992 0.546997 0.0674992C0.600997 0.0451992 0.656013 0.0284002 0.713013 0.0170002C0.771013 0.0057002 0.827986 0 0.885986 0C0.944986 0 1.00202 0.0057002 1.05902 0.0170002C1.11602 0.0284002 1.17201 0.0451992 1.22601 0.0674992C1.27901 0.0896992 1.33003 0.117001 1.37903 0.149401C1.42703 0.181701 1.472 0.2185 1.513 0.2596L6.5 5.2465L11.487 0.2596Z" fill="#914154"/>
</svg>
