<svg xmlns="http://www.w3.org/2000/svg" xmlns:xlink="http://www.w3.org/1999/xlink" viewBox="0 0 821 827"><defs><style>.cls-1{fill:#fff;}.cls-2{fill:url(#未命名的渐变_31);}.cls-3{fill:#ff8e3a;}.cls-4{fill:#575252;}.cls-5{fill:#4f4a4c;}.cls-6{fill:#211f21;}.cls-7{fill:#ffa93a;stroke:#211f21;stroke-miterlimit:10;stroke-width:4px;}.cls-8{fill:#454045;}</style><radialGradient id="未命名的渐变_31" cx="410.5" cy="413.5" r="343.5" gradientUnits="userSpaceOnUse"><stop offset="0" stop-color="#232323"/><stop offset="0.29" stop-color="#2e2d2d"/><stop offset="0.79" stop-color="#4b4747"/><stop offset="1" stop-color="#595454"/></radialGradient></defs><g id="图层_2" data-name="图层 2"><g id="图层_2-2" data-name="图层 2"><rect class="cls-1" width="821" height="827" rx="196.44"/><rect class="cls-2" x="67" y="70" width="687" height="687" rx="103.76"/><rect class="cls-3" x="135" y="132.5" width="551" height="562" rx="55.54"/><path class="cls-4" d="M190.54,695.5H630.46A55.54,55.54,0,0,0,686,640V556.67c-2.32-62.38-7.66-108-10-127.17-8.78-71.92-15.66-102.31-21-123-16.23-62.91-28.77-111.9-55-116-21.67-3.38-47.73,22.84-69.16,62a18.35,18.35,0,0,1-28.66,4.65A122.09,122.09,0,0,0,480,240.5c-38.4-22.44-77.68-16.78-97-14a183.44,183.44,0,0,0-61.12,20.35,16.84,16.84,0,0,1-24.08-10c-9.52-31.12-23.5-46.73-44.8-55.33-10.81-4.36-21.56-1.06-25,0-42.52,13.08-54.57,102.32-71,224-1.52,11.25-4.14,31.5-6.55,51.22-3.66,30.06-6.79,58.39-10.45,92.78-2.33,21.94-3.91,41.77-5,59.18V640A55.54,55.54,0,0,0,190.54,695.5Z"/><path class="cls-5" d="M262,383.5c4.11-11.08,39.26-69.78,69-141-7.73.8-23.8,13.67-31-5-11.71-30.36-25.7-47.4-47-56-10.81-4.36-21.56-1.06-25,0-42.52,13.08-54.57,102.32-71,224-1.52,11.25-4.14,31.5-6.55,51.22-3.66,30.06-6.79,58.39-10.45,92.78-2.33,21.94-3.91,41.77-5,59.18V640a55.54,55.54,0,0,0,55.54,55.54h45.59a339.44,339.44,0,0,1-16.13-89C215.14,509.77,247.6,422.31,262,383.5Z"/><circle class="cls-1" cx="299.5" cy="389" r="50.5"/><circle class="cls-6" cx="300" cy="388.5" r="28"/><circle class="cls-1" cx="288" cy="375.5" r="5"/><circle class="cls-1" cx="520.5" cy="389" r="50.5"/><circle class="cls-6" cx="519" cy="388.5" r="28"/><circle class="cls-1" cx="507" cy="375.5" r="5"/><path class="cls-6" d="M411,427.5c-20.9-.09-24.83.26-29,4-7.09,6.36-6.19,15.64-6,18,.8,10.06,4.87,19.71,17,33,9.48,10.38,14,9,19,9,8.06,0,13.46-5.73,20-14a62.24,62.24,0,0,0,11-21c2.14-7.32,3.47-18.72-2-25C437.82,427.84,434,427.6,411,427.5Z"/><path class="cls-6" d="M364.23,490.27c-1.25,9,.78,18.06,7.14,24.82,5.62,6,15.5,9.42,23.5,6.94,3.6-1.12,7.3-4.53,9.91-7.17,3.23-3.27,5.14-7.71,6.82-11.9a70.2,70.2,0,0,0,4.72-30.65c-.54-8.3-13.55-8.36-13,0a59.82,59.82,0,0,1-1.54,18.95c-1.38,5.38-3.2,11.85-7.57,15.57-1.84,1.56-3,3.13-5.51,2.94a12.67,12.67,0,0,1-6.31-2.27c-4.13-2.91-6.31-8.81-5.62-13.77.49-3.51-.86-6.94-4.54-8-3-.87-7.51,1.07-8,4.54Z"/><path class="cls-6" d="M440.45,493.73c.65,4.66-1.3,10.42-5,13.4a13,13,0,0,1-6.9,2.64c-2.51.19-3.6-1.35-5.5-2.94-9.17-7.71-7.81-24.2-7-34.83.63-8.34-12.37-8.3-13,0-.75,10-.9,20.51,2.4,30.13,1.5,4.35,3.48,8.76,6.58,12.21,2.54,2.81,6.7,6.55,10.36,7.69,7.8,2.42,17.38-.82,23.05-6.44,6.73-6.69,8.87-16.19,7.6-25.32-.49-3.5-4.93-5.35-8-4.54-3.75,1-5,4.54-4.54,8Z"/><ellipse class="cls-5" cx="233.12" cy="507.48" rx="46.97" ry="32.99" transform="translate(-154.22 105.17) rotate(-19.24)"/><ellipse class="cls-5" cx="584.06" cy="486.59" rx="39.23" ry="46.97" transform="translate(-173 555.51) rotate(-45)"/><path class="cls-7" d="M441.38,482.81c-7.3-1.18-26.06-3.94-45.52,5.41-12.74,6.13-19.53,14.44-32.52,30.35-14.92,18.29-22.39,27.43-26,41.19a75.85,75.85,0,0,0,11.92,62.87c19.3,26.42,52.59,34.16,78,29.26,23.23-4.46,37.58-19,48.78-30.35,10.3-10.43,26.39-26.72,30.35-53.11,1.07-7.13,4.15-30-9.76-52C479.28,488.9,448.8,484,441.38,482.81Z"/><path class="cls-6" d="M251.17,634.9c27.61,23.09,66.94,22.46,100.46,15.88,9.33-1.83,19.11-4.63,25.57-12.1s8.81-17.43,7.38-27.18c-3-20.59-22.51-32.83-41.37-37-11.66-2.58-23.76-3.43-35.6-4.81-11.09-1.29-22.86-2.25-33.14-7-5.4-2.48-11.85-1.54-15.05,3.94-2.77,4.74-1.48,12.57,3.94,15.05,17.19,7.87,36,9,54.51,11.17,14.07,1.64,32.84,2.46,42.14,15,3.1,4.16,4.05,9.06,2.3,13.65-1.86,4.91-8.37,6.34-13.81,7.49A159.91,159.91,0,0,1,307,632.5c-14.12-.73-29.44-4.08-40.29-13.15-4.56-3.81-11.1-4.47-15.56,0-3.92,3.91-4.58,11.72,0,15.55Z"/><path class="cls-6" d="M582.52,563.68c-4.25,12.56-15.44,22.51-26.85,29.68a139.64,139.64,0,0,1-19.5,10.21c-5.09,2.17-14.6,7.11-19.37,4.62-4.93-2.57-5.39-9.14-3.69-14.42,2.57-8,9.44-13.94,15.73-19.13,14.56-12,31.14-22.24,41.85-38.15,3.32-4.93.95-12.19-4-15-5.41-3.17-11.72-1-15,3.94-9.36,13.91-25.66,23.2-38.41,33.71-13.95,11.5-26.31,28.15-22.37,47.3a32.06,32.06,0,0,0,13.65,20.09c8.06,5.19,17.8,5.1,26.7,2.33a148.34,148.34,0,0,0,40.42-19.71c14.31-10,26.37-22.76,32.05-39.57,1.9-5.63-2.19-12-7.68-13.53-6-1.66-11.62,2-13.53,7.68Z"/><path class="cls-8" d="M241.28,224.52a7.22,7.22,0,0,0-8-.31A27.93,27.93,0,0,0,228.5,228c-5.93,5.89-7.37,13-10,27a131.31,131.31,0,0,0-2,24c.05,10.81,1.33,12.35,2,13,7.14,7,28.38-5.47,31-7,7.77-4.55,13.64-8,16-15,2.7-8-.94-15.63-4-22A62,62,0,0,0,241.28,224.52Z"/><path class="cls-5" d="M592,219.5c-4.65-.48-9.5,5.68-19,18-9.09,11.8-13.65,17.82-14,24-.65,11.49,7.42,20.11,12,25,2.65,2.83,11.68,12.47,23,12,1.94-.08,5.85-.3,8-3s1-6.12,1-11c0-6.88,2.28-9.21,4-16,3.34-13.14-.08-24.85-1-28C604.54,235.49,600.12,220.33,592,219.5Z"/><circle class="cls-4" cx="387.65" cy="529.74" r="13.5"/><circle class="cls-4" cx="463.65" cy="549.74" r="13.5"/><circle class="cls-4" cx="431.65" cy="505.74" r="10.5"/><circle class="cls-4" cx="408.65" cy="569.74" r="15.5"/><circle class="cls-4" cx="458.15" cy="602.24" r="12"/><circle class="cls-4" cx="416.65" cy="627.74" r="15.5"/><circle class="cls-4" cx="438.15" cy="575.24" r="8"/><circle class="cls-4" cx="368.15" cy="567.24" r="8"/><circle class="cls-4" cx="470.15" cy="516.24" r="4"/><circle class="cls-4" cx="393.15" cy="604.24" r="8"/><circle class="cls-4" cx="432.15" cy="536.24" r="8"/></g></g></svg>