<svg width="18" height="19" viewBox="0 0 18 19" fill="none" xmlns="http://www.w3.org/2000/svg">
<path d="M8.74528 0.0325652C8.82619 0.0109715 8.90856 0.000112562 8.9924 8.70576e-07C9.07623 -0.000110821 9.15863 0.0105247 9.2396 0.0319075C9.32055 0.0532902 9.39727 0.0846756 9.46976 0.126064L11.4908 1.28021C11.5446 1.31093 11.5948 1.34649 11.6415 1.38693C11.6881 1.42735 11.7303 1.47186 11.768 1.52046C11.8057 1.56905 11.8383 1.6208 11.8656 1.67569C11.893 1.73058 11.9146 1.78755 11.9305 1.84664C11.9465 1.90572 11.9564 1.96575 11.9602 2.02675C11.9641 2.08774 11.9619 2.14853 11.9536 2.2091C11.9453 2.26966 11.9311 2.32885 11.9109 2.38667C11.8908 2.44449 11.8651 2.49981 11.8338 2.55265C11.8025 2.60548 11.7663 2.65481 11.7252 2.70064C11.684 2.74648 11.6387 2.78793 11.5893 2.825C11.5398 2.86205 11.4871 2.89402 11.4313 2.92089C11.3754 2.94776 11.3174 2.96902 11.2573 2.98466C11.1971 3.00031 11.136 3.01004 11.0739 3.01385C11.0119 3.01768 10.95 3.0155 10.8883 3.00735C10.8267 2.9992 10.7664 2.98522 10.7076 2.9654C10.6487 2.94558 10.5924 2.92033 10.5387 2.88961L8.99517 2.00819L7.46357 2.88834C7.40987 2.9192 7.35364 2.9446 7.29485 2.96457C7.23605 2.98454 7.17585 2.99869 7.11422 3.00702C7.05259 3.01533 6.99073 3.01766 6.92865 3.01401C6.86655 3.01035 6.80541 3.00079 6.74524 2.98531C6.68506 2.96982 6.62701 2.94872 6.57106 2.92201C6.51512 2.89529 6.46235 2.86345 6.4128 2.82652C6.36323 2.7896 6.31781 2.74828 6.27653 2.70256C6.23525 2.65682 6.19891 2.60759 6.16751 2.55484C6.10408 2.4483 6.06381 2.33389 6.04671 2.21161C6.02961 2.08933 6.03697 1.96849 6.0688 1.84909C6.10064 1.7297 6.15451 1.62082 6.23042 1.52248C6.30633 1.42413 6.39851 1.3438 6.50696 1.28149L8.51538 0.127342C8.58774 0.0857553 8.66438 0.054159 8.74528 0.0325652ZM0.469465 4.7437L2.47748 3.58979C2.53118 3.55892 2.58741 3.53351 2.6462 3.51354C2.705 3.49357 2.7652 3.47943 2.82683 3.47111C2.88846 3.46279 2.95032 3.46046 3.0124 3.46411C3.0745 3.46776 3.13564 3.47732 3.19581 3.49281C3.25599 3.5083 3.31405 3.5294 3.36999 3.55612C3.42594 3.58284 3.4787 3.61467 3.52825 3.65159C3.57782 3.68852 3.62324 3.72985 3.66452 3.77557C3.7058 3.82129 3.74214 3.87053 3.77355 3.92328C3.80496 3.97604 3.83082 4.03129 3.85114 4.08905C3.87147 4.14682 3.88586 4.20596 3.89434 4.26651C3.9028 4.32706 3.90518 4.38784 3.90147 4.44883C3.89774 4.50984 3.888 4.56991 3.87225 4.62903C3.85648 4.68815 3.83501 4.74519 3.80781 4.80015C3.78062 4.85512 3.74822 4.90695 3.71063 4.95564C3.67305 5.00434 3.63099 5.04896 3.58445 5.08952C3.5379 5.13008 3.48779 5.16578 3.4341 5.19663L2.82378 5.54736L3.4341 5.89808C3.48779 5.92893 3.5379 5.96464 3.58445 6.00519C3.63099 6.04575 3.67305 6.09038 3.71063 6.13907C3.74822 6.18776 3.78062 6.2396 3.80781 6.29456C3.83501 6.34953 3.85648 6.40656 3.87225 6.46569C3.888 6.52481 3.89774 6.58487 3.90147 6.64588C3.90518 6.70688 3.9028 6.76765 3.89434 6.8282C3.88586 6.88875 3.87147 6.9479 3.85114 7.00567C3.83082 7.06342 3.80496 7.11867 3.77355 7.17143C3.71012 7.27797 3.62836 7.36854 3.52825 7.44311C3.42816 7.5177 3.31734 7.57063 3.19581 7.6019C3.07429 7.63317 2.95129 7.64041 2.82683 7.62361C2.70237 7.6068 2.58592 7.56724 2.47748 7.50493L1.89474 7.17005V7.52058C1.89474 7.5817 1.88867 7.64222 1.87653 7.70216C1.8644 7.7621 1.84643 7.82031 1.82262 7.87676C1.79881 7.93323 1.76963 7.98686 1.73507 8.03768C1.70051 8.0885 1.66124 8.13552 1.61726 8.17873C1.57328 8.22194 1.52543 8.26052 1.4737 8.29448C1.42197 8.32843 1.36738 8.3571 1.30991 8.38049C1.25243 8.40389 1.1932 8.42153 1.13219 8.43346C1.07118 8.44538 1.00958 8.45134 0.947368 8.45134C0.885158 8.45134 0.823554 8.44538 0.762543 8.43346C0.701533 8.42153 0.64229 8.40389 0.584817 8.38049C0.527343 8.3571 0.472749 8.32843 0.421036 8.29448C0.369309 8.26052 0.321461 8.22194 0.277478 8.17873C0.233495 8.13552 0.194223 8.0885 0.159663 8.03768C0.125103 7.98686 0.0959242 7.93323 0.0721137 7.87676C0.0483031 7.82031 0.0303411 7.7621 0.0182021 7.70216C0.00606316 7.64222 0 7.5817 0 7.52058V5.54736C0 5.46745 0.0103074 5.38884 0.0309095 5.31154C0.0503495 5.2386 0.0784042 5.16902 0.115048 5.10279C0.119773 5.09426 0.124623 5.08581 0.1296 5.07743C0.21312 4.93715 0.326678 4.82574 0.469465 4.7437ZM15.1762 5.54736L14.5659 5.19663C14.5122 5.16578 14.4621 5.13008 14.4155 5.08952C14.3691 5.04896 14.327 5.00434 14.2893 4.95564C14.2518 4.90695 14.2194 4.85512 14.1922 4.80015C14.165 4.74519 14.1435 4.68815 14.1278 4.62903C14.112 4.56991 14.1023 4.50984 14.0985 4.44883C14.0948 4.38784 14.0972 4.32706 14.1057 4.26651C14.1141 4.20596 14.1285 4.14682 14.1489 4.08905C14.1692 4.03129 14.195 3.97604 14.2264 3.92328C14.2899 3.81674 14.3716 3.72617 14.4717 3.6516C14.5719 3.57702 14.6827 3.52409 14.8042 3.49281C14.9257 3.46154 15.0487 3.4543 15.1732 3.47111C15.2976 3.48791 15.4141 3.52747 15.5226 3.58979L17.5302 4.74354C17.6626 4.81965 17.7706 4.92175 17.8528 5.04906C17.8588 5.05842 17.8647 5.06788 17.8704 5.07743C17.9483 5.20835 17.9911 5.34955 17.9989 5.50104C17.9996 5.51607 18 5.5311 18 5.54614V7.52058C18 7.5817 17.9939 7.64222 17.9818 7.70216C17.9697 7.7621 17.9517 7.82031 17.9279 7.87676C17.904 7.93323 17.8749 7.98686 17.8403 8.03768C17.8058 8.0885 17.7665 8.13552 17.7225 8.17873C17.6785 8.22194 17.6307 8.26052 17.579 8.29448C17.5273 8.32843 17.4727 8.3571 17.4152 8.38049C17.3577 8.40389 17.2985 8.42153 17.2374 8.43346C17.1765 8.44538 17.1149 8.45134 17.0526 8.45134C16.9904 8.45134 16.9288 8.44538 16.8678 8.43346C16.8068 8.42153 16.7475 8.40389 16.6901 8.38049C16.6326 8.3571 16.578 8.32843 16.5263 8.29448C16.4746 8.26052 16.4267 8.22194 16.3828 8.17873C16.3387 8.13552 16.2994 8.0885 16.2649 8.03768C16.2304 7.98686 16.2012 7.93323 16.1774 7.87676C16.1536 7.82031 16.1356 7.7621 16.1235 7.70216C16.1113 7.64222 16.1053 7.5817 16.1053 7.52058V7.17005L15.5226 7.50493C15.4141 7.56724 15.2976 7.6068 15.1732 7.62361C15.0487 7.64041 14.9257 7.63317 14.8042 7.6019C14.6827 7.57063 14.5719 7.5177 14.4717 7.44311C14.3716 7.36854 14.2899 7.27797 14.2264 7.17143C14.195 7.11867 14.1692 7.06342 14.1489 7.00567C14.1285 6.9479 14.1141 6.88875 14.1057 6.8282C14.0972 6.76765 14.0948 6.70688 14.0985 6.64588C14.1023 6.58487 14.112 6.52481 14.1278 6.46569C14.1435 6.40656 14.165 6.34953 14.1922 6.29456C14.2194 6.2396 14.2518 6.18776 14.2893 6.13907C14.327 6.09038 14.3691 6.04575 14.4155 6.00519C14.4621 5.96464 14.5122 5.92893 14.5659 5.89808L15.1762 5.54736ZM9.94105 10.6995V12.1372C9.94105 12.1983 9.93499 12.2588 9.92285 12.3188C9.91071 12.3787 9.89275 12.4369 9.86894 12.4933C9.84513 12.5498 9.81595 12.6035 9.78139 12.6543C9.74683 12.7051 9.70756 12.7521 9.66357 12.7953C9.61959 12.8386 9.57174 12.8772 9.52002 12.9111C9.46829 12.945 9.4137 12.9737 9.35622 12.9971C9.29876 13.0205 9.23952 13.0381 9.17851 13.0501C9.1175 13.062 9.05589 13.0679 8.99368 13.0679C8.93147 13.0679 8.86987 13.062 8.80886 13.0501C8.74785 13.0381 8.68861 13.0205 8.63115 12.9971C8.57367 12.9737 8.51908 12.945 8.46735 12.9111C8.41562 12.8772 8.36778 12.8386 8.32379 12.7953C8.27981 12.7521 8.24054 12.7051 8.20598 12.6543C8.17142 12.6035 8.14224 12.5498 8.11843 12.4933C8.09462 12.4369 8.07666 12.3787 8.06452 12.3188C8.05238 12.2588 8.04632 12.1983 8.04632 12.1372V10.6978L6.50696 9.81322C6.45326 9.78237 6.40315 9.74667 6.3566 9.70611C6.31007 9.66556 6.268 9.62093 6.23042 9.57223C6.19283 9.52355 6.16043 9.47171 6.13324 9.41674C6.10604 9.36178 6.08456 9.30474 6.0688 9.24562C6.05305 9.1865 6.04331 9.12643 6.03959 9.06542C6.03587 9.00443 6.03825 8.94365 6.04671 8.8831C6.05519 8.82255 6.06959 8.76341 6.08991 8.70564C6.11024 8.64788 6.13609 8.59263 6.16751 8.53988C6.19891 8.48712 6.23525 8.43788 6.27653 8.39216C6.31781 8.34644 6.36323 8.30511 6.4128 8.26819C6.46235 8.23126 6.51512 8.19943 6.57106 8.17271C6.62701 8.14599 6.68506 8.12489 6.74524 8.1094C6.80541 8.09393 6.86655 8.08436 6.92865 8.0807C6.99073 8.07705 7.05259 8.07938 7.11422 8.0877C7.17585 8.09603 7.23605 8.11017 7.29485 8.13014C7.35364 8.15011 7.40987 8.17551 7.46357 8.20638L8.99517 9.08652L10.5387 8.2051C10.5924 8.17438 10.6487 8.14913 10.7076 8.12931C10.7664 8.10949 10.8267 8.09552 10.8883 8.08736C10.95 8.07921 11.0119 8.07704 11.0739 8.08086C11.136 8.08467 11.1971 8.0944 11.2573 8.11005C11.3174 8.1257 11.3754 8.14696 11.4313 8.17383C11.4871 8.20069 11.5398 8.23266 11.5893 8.26972C11.6387 8.30679 11.684 8.34824 11.7252 8.39407C11.7663 8.4399 11.8025 8.48923 11.8338 8.54207C11.8969 8.64878 11.9369 8.76328 11.9536 8.88561C11.9704 9.00794 11.9627 9.12875 11.9305 9.24808C11.8984 9.36739 11.8442 9.47611 11.768 9.57425C11.6918 9.67239 11.5994 9.75248 11.4908 9.8145L9.94105 10.6995ZM0.274648 14.108C0.216417 14.0503 0.166737 13.9862 0.125596 13.9158C0.0844547 13.8453 0.0532295 13.7708 0.0319453 13.6923C0.0106611 13.6138 1.26316e-05 13.5339 1.26316e-05 13.4527V11.4794C1.26316e-05 11.4183 0.00607579 11.3578 0.0182147 11.2978C0.0303537 11.2379 0.0483158 11.1797 0.0721263 11.1232C0.0959368 11.0668 0.125116 11.0131 0.159676 10.9623C0.194236 10.9115 0.233507 10.8645 0.27749 10.8213C0.321474 10.7781 0.369335 10.7395 0.421048 10.7055C0.472775 10.6716 0.527368 10.6429 0.584829 10.6195C0.642303 10.5961 0.701545 10.5785 0.762556 10.5665C0.823566 10.5546 0.885171 10.5487 0.947381 10.5487C1.00959 10.5487 1.0712 10.5546 1.13221 10.5665C1.19322 10.5785 1.25246 10.5961 1.30992 10.6195C1.36739 10.6429 1.42199 10.6716 1.47371 10.7055C1.52544 10.7395 1.57329 10.7781 1.61727 10.8213C1.66125 10.8645 1.70053 10.9115 1.73509 10.9623C1.76965 11.0131 1.79883 11.0668 1.82264 11.1232C1.84645 11.1797 1.86441 11.2379 1.87655 11.2978C1.88869 11.3578 1.89475 11.4183 1.89475 11.4794V12.9188L3.43411 13.8034C3.54255 13.8657 3.63474 13.946 3.71064 14.0444C3.78656 14.1427 3.84043 14.2516 3.87226 14.371C3.90409 14.4904 3.91146 14.6112 3.89435 14.7335C3.87725 14.8558 3.83698 14.9702 3.77356 15.0768C3.74216 15.1295 3.70581 15.1787 3.66453 15.2245C3.62325 15.2701 3.57783 15.3114 3.52827 15.3484C3.47871 15.3853 3.42595 15.4171 3.37 15.4439C3.31406 15.4706 3.256 15.4917 3.19583 15.5072C3.13565 15.5226 3.07451 15.5322 3.01242 15.5359C2.95033 15.5396 2.88848 15.5372 2.82685 15.5289C2.76522 15.5206 2.70501 15.5064 2.64621 15.4864C2.58743 15.4665 2.53119 15.4411 2.47749 15.4102L0.469074 14.2561C0.397693 14.215 0.33288 14.1657 0.274648 14.108ZM17.968 13.6923C17.9467 13.7708 17.9155 13.8453 17.8744 13.9158C17.8333 13.9862 17.7836 14.0503 17.7254 14.108C17.6671 14.1657 17.6023 14.215 17.531 14.2561L15.5226 15.4102C15.4688 15.4411 15.4126 15.4665 15.3538 15.4864C15.295 15.5064 15.2348 15.5206 15.1732 15.5289C15.1115 15.5372 15.0497 15.5396 14.9876 15.5359C14.9255 15.5322 14.8643 15.5226 14.8042 15.5072C14.744 15.4917 14.6859 15.4706 14.63 15.4439C14.5741 15.4171 14.5214 15.3853 14.4717 15.3484C14.4221 15.3114 14.3767 15.2701 14.3355 15.2245C14.2942 15.1787 14.2579 15.1295 14.2264 15.0768C14.195 15.024 14.1692 14.9687 14.1489 14.911C14.1285 14.8532 14.1141 14.7941 14.1057 14.7335C14.0972 14.6729 14.0948 14.6122 14.0985 14.5512C14.1023 14.4901 14.112 14.4301 14.1278 14.371C14.1435 14.3118 14.165 14.2548 14.1922 14.1999C14.2194 14.1449 14.2518 14.0931 14.2893 14.0444C14.327 13.9956 14.3691 13.951 14.4155 13.9105C14.4621 13.8699 14.5122 13.8342 14.5659 13.8034L16.1053 12.9188V11.4794C16.1053 11.4183 16.1113 11.3578 16.1235 11.2978C16.1356 11.2379 16.1536 11.1797 16.1774 11.1232C16.2012 11.0668 16.2304 11.0131 16.2649 10.9623C16.2994 10.9115 16.3387 10.8645 16.3828 10.8213C16.4267 10.7781 16.4746 10.7395 16.5263 10.7055C16.578 10.6716 16.6326 10.6429 16.6901 10.6195C16.7475 10.5961 16.8068 10.5785 16.8678 10.5665C16.9288 10.5546 16.9904 10.5487 17.0526 10.5487C17.1149 10.5487 17.1765 10.5546 17.2374 10.5665C17.2985 10.5785 17.3577 10.5961 17.4152 10.6195C17.4727 10.6429 17.5273 10.6716 17.579 10.7055C17.6307 10.7395 17.6785 10.7781 17.7225 10.8213C17.7665 10.8645 17.8058 10.9115 17.8403 10.9623C17.8749 11.0131 17.904 11.0668 17.9279 11.1232C17.9517 11.1797 17.9697 11.2379 17.9818 11.2978C17.9939 11.3578 18 11.4183 18 11.4794V13.4527C18 13.5339 17.9893 13.6138 17.968 13.6923ZM8.51472 18.8723L6.50696 17.7185C6.45326 17.6877 6.40315 17.652 6.3566 17.6114C6.31007 17.5709 6.268 17.5263 6.23042 17.4775C6.19283 17.4288 6.16043 17.377 6.13324 17.322C6.10604 17.2671 6.08456 17.21 6.0688 17.1509C6.05305 17.0918 6.04331 17.0317 6.03959 16.9707C6.03587 16.9097 6.03825 16.8489 6.04671 16.7884C6.05519 16.7278 6.06959 16.6687 6.08991 16.6109C6.11024 16.5532 6.13609 16.4979 6.16751 16.4451C6.23093 16.3386 6.31269 16.2481 6.4128 16.1735C6.51289 16.0989 6.62371 16.046 6.74524 16.0147C6.86677 15.9835 6.98976 15.9762 7.11422 15.993C7.23868 16.0098 7.35513 16.0494 7.46357 16.1117L8.04632 16.4465V16.096C8.04632 16.0349 8.05238 15.9744 8.06452 15.9145C8.07666 15.8545 8.09462 15.7963 8.11843 15.7398C8.14224 15.6833 8.17142 15.6297 8.20598 15.5789C8.24054 15.5281 8.27981 15.4811 8.32379 15.4379C8.36778 15.3946 8.41562 15.356 8.46735 15.3221C8.51908 15.2882 8.57367 15.2595 8.63115 15.2361C8.68861 15.2127 8.74785 15.195 8.80886 15.1831C8.86987 15.1712 8.93147 15.1653 8.99368 15.1653C9.05589 15.1653 9.1175 15.1712 9.17851 15.1831C9.23952 15.195 9.29876 15.2127 9.35622 15.2361C9.4137 15.2595 9.46829 15.2882 9.52002 15.3221C9.57174 15.356 9.61959 15.3946 9.66357 15.4379C9.70756 15.4811 9.74683 15.5281 9.78139 15.5789C9.81595 15.6297 9.84513 15.6833 9.86894 15.7398C9.89275 15.7963 9.91071 15.8545 9.92285 15.9145C9.93499 15.9744 9.94105 16.0349 9.94105 16.096V16.4517L10.5387 16.1104C10.5924 16.0797 10.6487 16.0544 10.7076 16.0346C10.7664 16.0148 10.8267 16.0008 10.8883 15.9926C10.95 15.9845 11.0119 15.9823 11.0739 15.9862C11.136 15.99 11.1971 15.9997 11.2573 16.0154C11.3174 16.031 11.3754 16.0522 11.4313 16.0791C11.4871 16.106 11.5398 16.138 11.5893 16.1751C11.6387 16.2121 11.684 16.2535 11.7252 16.2993C11.7663 16.3451 11.8025 16.3945 11.8338 16.4474C11.8651 16.5002 11.8908 16.5555 11.9109 16.6133C11.9311 16.6711 11.9453 16.7303 11.9536 16.7909C11.9619 16.8514 11.9641 16.9122 11.9602 16.9733C11.9564 17.0343 11.9465 17.0943 11.9305 17.1534C11.9146 17.2124 11.893 17.2694 11.8656 17.3244C11.8383 17.3792 11.8057 17.4309 11.768 17.4795C11.7303 17.5282 11.6881 17.5727 11.6415 17.613C11.5948 17.6535 11.5446 17.6891 11.4908 17.7198L9.46994 18.8738C9.40233 18.9124 9.33076 18.9425 9.25559 18.9638C9.24832 18.9658 9.24102 18.9678 9.23371 18.9696C9.15503 18.9899 9.07502 19 8.99368 19C8.84006 19 8.69502 18.9653 8.55856 18.896C8.54396 18.8886 8.5289 18.8804 8.51472 18.8723Z" fill="#7A7878"/>
</svg>
